<?xml version="1.0" encoding="UTF-8"?>
<svg id="_17973410-0141-46e6-adaf-4eff8bcb1540" data-name="17973410-0141-46e6-adaf-4eff8bcb1540" xmlns="http://www.w3.org/2000/svg" viewBox="0 0 74 22">
  <path d="M22.32,4.41c-3.28,0-5.31,1.52-5.31,4.18h3.13c0-1.2,.51-1.75,2.24-1.75,1.6,0,2.25,.44,2.25,1.53v.83c-1.12,.17-4.19,.74-4.48,.8-1.76,.37-3.85,1.36-3.85,3.96-.01,2.2,1.76,3.99,3.95,4,.12,0,.24,0,.36-.01,1.42,.01,2.79-.46,3.9-1.34h.12l.17,1.04h2.96V8.57c0-3.05-1.85-4.16-5.44-4.16Zm2.32,9.95c-.96,.58-2.04,.92-3.16,1.01-1.1,0-1.9-.63-1.9-1.5,0-1.18,.96-1.45,2.03-1.67,.84-.18,3.02-.59,3.02-.59v2.76ZM68.56,4.41c-3.28,0-5.31,1.52-5.31,4.18h3.13c0-1.2,.51-1.75,2.24-1.75,1.6,0,2.25,.44,2.25,1.53v.83c-1.12,.17-4.19,.74-4.48,.8-1.76,.37-3.85,1.36-3.85,3.96-.01,2.2,1.76,3.99,3.95,4,.12,0,.24,0,.36-.01,1.42,.01,2.79-.46,3.9-1.34h.12l.17,1.04h2.96V8.57c0-3.05-1.85-4.16-5.44-4.16Zm2.32,9.95c-.96,.58-2.04,.92-3.16,1.01-1.1,0-1.9-.63-1.9-1.5,0-1.18,.96-1.45,2.03-1.67,.84-.18,3.02-.59,3.02-.59v2.76ZM62.42,0l-3.63,17.65h-3.95l-2.51-11.95h-.12l-2.51,11.95h-3.94L42.13,0h3.45l2.37,13.19h.12L50.67,.04h3.41l2.51,13.14h.12L58.97,0h3.45ZM10.8,8.04v-.12c1.7-.27,2.91-1.79,2.8-3.5C13.6,2.02,11.91,0,8.33,0H0V17.65H7.54c3.19,0,6.85-.6,6.85-5.3,.07-2.14-1.47-4-3.59-4.31ZM3.42,2.72h3.87c1.79,0,2.73,.74,2.73,2.14,0,.82-.36,2.19-2.73,2.19H3.42V2.72ZM7.66,14.63H3.42v-5.01H7.64c2.17,0,3.18,.84,3.18,2.63,0,1.65-.97,2.38-3.15,2.38ZM37.72,4.92h3.22s-3.35,11.12-4.17,13.85c-.69,2.27-1.75,3.24-3.96,3.24-.74-.02-1.47-.15-2.17-.38v-2.36c2.29,.55,3,.24,3.18-1.3l-4.57-13.05h3.35l2.68,8.86h.12l2.31-8.86Z" fill="#0f8345"/>
</svg>