<?xml version="1.0" encoding="UTF-8"?>
<svg id="_7fcfe516-5986-4745-bcbb-3acd2ee04eb4" data-name="7fcfe516-5986-4745-bcbb-3acd2ee04eb4" xmlns="http://www.w3.org/2000/svg" viewBox="0 0 113.39 35.67">
  <path d="M104.56,7.16c-5.32,0-8.6,2.46-8.6,6.78h5.08c0-1.94,.83-2.83,3.63-2.83,2.59,0,3.65,.72,3.65,2.47v1.35c-1.81,.28-6.79,1.19-7.26,1.29-2.85,.6-6.24,2.21-6.24,6.42,0,3.8,2.87,6.46,6.98,6.46,2.3,.02,4.53-.74,6.33-2.17h.19l.27,1.69h4.8V13.9c0-4.95-3-6.74-8.82-6.74Zm3.75,16.12c-1.55,.94-3.31,1.5-5.12,1.63-1.78,0-3.07-1.02-3.07-2.43,0-1.91,1.55-2.35,3.29-2.71,1.36-.29,4.9-.96,4.9-.96v4.48ZM34.71,7.16c-5.32,0-8.6,2.46-8.6,6.78h5.08c0-1.94,.83-2.83,3.63-2.83,2.59,0,3.65,.72,3.65,2.47v1.35c-1.81,.28-6.79,1.19-7.26,1.29-2.85,.6-6.24,2.21-6.24,6.42,0,3.8,2.87,6.46,6.98,6.46,2.3,.02,4.53-.74,6.33-2.17h.19l.27,1.69h4.8V13.9c0-4.95-3-6.74-8.82-6.74Zm3.75,16.12c-1.55,.94-3.31,1.5-5.12,1.63-1.78,0-3.07-1.02-3.07-2.43,0-1.91,1.55-2.35,3.29-2.71,1.36-.29,4.9-.96,4.9-.96v4.48ZM96.44,0l-5.88,28.62h-6.4l-4.07-19.38h-.19l-4.07,19.38h-6.4L63.54,0h5.59l3.83,21.38h.19L77.39,.07h5.52l4.06,21.31h.19L90.84,0h5.59ZM17.5,13.04v-.19c2.75-.45,4.71-2.9,4.54-5.68C22.05,3.27,19.31,0,13.51,0H0V28.62H12.23c5.17,0,11.1-.98,11.1-8.6,.12-3.47-2.39-6.48-5.83-6.99ZM5.55,4.42h6.28c2.9,0,4.43,1.2,4.43,3.46,0,1.32-.58,3.54-4.43,3.54H5.55V4.42Zm6.88,19.31H5.55V15.6h6.84c3.51,0,5.15,1.35,5.15,4.26,0,2.67-1.58,3.86-5.11,3.86ZM58.09,7.98h5.23s-5.43,18.03-6.76,22.45c-1.11,3.68-2.84,5.25-6.41,5.25-1.2-.04-2.38-.24-3.52-.61v-3.82c3.72,.9,4.86,.39,5.16-2.11l-7.41-21.15h5.43l4.35,14.37h.19l3.75-14.37Z" fill="#0f8345"/>
</svg>