<svg width="54" height="54" viewBox="0 0 54 54" fill="none" xmlns="http://www.w3.org/2000/svg">
<rect width="54" height="54" rx="5" fill="white"/>
<rect width="48.4138" height="52" transform="translate(2.7931 1)" fill="white"/>
<path d="M36.0776 9.66663L36.0776 46.5L29.0172 46.5L29.0172 35.6907L22.9655 35.6907L22.9655 46.5L15.9052 46.5L15.9052 9.66663L18.931 9.66663L18.931 20.5L33.0517 20.5L33.0517 9.66663L36.0776 9.66663ZM20.9483 35.6666L18.931 35.6666L18.931 40L20.9483 40L20.9483 35.6666ZM20.9483 29.1666L18.931 29.1666L18.931 33.5L20.9483 33.5L20.9483 29.1666ZM20.9483 22.6666L18.931 22.6666L18.931 27L20.9483 27L20.9483 22.6666ZM24.9828 29.1666L22.9655 29.1666L22.9655 33.5L24.9828 33.5L24.9828 29.1666ZM24.9828 22.6666L22.9655 22.6666L22.9655 27L24.9828 27L24.9828 22.6666ZM29.0172 29.1666L27 29.1666L27 33.5L29.0172 33.5L29.0172 29.1666ZM29.0172 22.6666L27 22.6666L27 27L29.0172 27L29.0172 22.6666ZM33.0517 35.6666L31.0345 35.6666L31.0345 40L33.0517 40L33.0517 35.6666ZM33.0517 29.1666L31.0345 29.1666L31.0345 33.5L33.0517 33.5L33.0517 29.1666ZM33.0517 22.6666L31.0345 22.6666L31.0345 27L33.0517 27L33.0517 22.6666ZM29.9807 12.8647C30.09 12.84 30.3755 12.7813 30.3755 12.7813L30.3755 13.1689C30.3185 13.2043 30.1336 13.3104 29.9631 13.3104C29.8195 13.3104 29.7153 13.2219 29.7153 13.0998C29.7153 12.9343 29.8406 12.8966 29.9807 12.8647ZM22.2857 12.5041C22.148 12.5041 21.7345 12.5041 21.7345 12.5041L21.7345 13.2076C21.7345 13.2076 22.1503 13.2076 22.289 13.2076C22.5741 13.2076 22.7013 13.1045 22.7013 12.8731C22.7013 12.6213 22.5691 12.5041 22.2857 12.5041ZM23.8162 13.0998C23.8162 13.2219 23.9203 13.3105 24.0639 13.3105C24.2344 13.3105 24.4193 13.2045 24.4763 13.1689L24.4765 12.7814C24.4765 12.7814 24.1908 12.84 24.0815 12.8648C23.9414 12.8966 23.8162 12.9343 23.8162 13.0998ZM31.5388 6.57697L31.5388 18.8749L20.444 18.875L20.444 6.57697L31.5388 6.57697ZM23.168 12.8869C23.168 12.5715 22.9752 12.3276 22.6983 12.2818L22.6983 12.2651C22.9347 12.2047 23.0647 12.0344 23.0647 11.7732C23.0647 11.4361 22.844 11.153 22.3761 11.153L21.2871 11.153L21.2871 13.6316L22.2728 13.6316C22.6896 13.6316 23.168 13.547 23.168 12.8869ZM24.8852 12.3564C24.8852 11.928 24.6436 11.7727 24.1737 11.7727C23.7451 11.7727 23.4802 11.986 23.4802 12.3597L23.8894 12.3597C23.8894 12.1919 23.9562 12.1145 24.1823 12.1145C24.3913 12.1145 24.4765 12.1765 24.4765 12.3286L24.4765 12.4458C24.3304 12.4701 23.9292 12.5492 23.8913 12.5579C23.6616 12.61 23.3879 12.7489 23.3879 13.1138C23.3879 13.4432 23.6194 13.6733 23.9509 13.6733C24.1448 13.6733 24.3099 13.6101 24.4608 13.4854L24.4763 13.4854L24.4984 13.6316L24.8851 13.6316L24.8852 12.3564ZM26.5682 11.8437L26.1466 11.8437L25.8444 13.0883L25.8289 13.0883L25.4783 11.8437L25.0405 11.8437L25.6381 13.6755C25.6141 13.8916 25.522 13.9355 25.2223 13.858L25.2223 14.1887C25.2855 14.2115 25.408 14.2418 25.506 14.2418C25.7942 14.2418 25.9335 14.106 26.023 13.7877C26.1307 13.4051 26.5682 11.8437 26.5682 11.8437ZM28.8525 13.6316L29.3268 11.153L28.8758 11.153L28.5793 13.0045L28.5638 13.0045L28.2362 11.1591L27.7908 11.1591L27.4499 13.0045L27.4344 13.0045L27.1253 11.153L26.6742 11.153L27.1486 13.6316L27.6643 13.6316L27.9927 11.9536L28.0083 11.9536L28.3367 13.6316L28.8525 13.6316ZM30.7844 12.3564C30.7844 11.928 30.5427 11.7725 30.0729 11.7725C29.6442 11.7725 29.3794 11.9858 29.3794 12.3597L29.7886 12.3597C29.7886 12.1919 29.8553 12.1145 30.0815 12.1145C30.2903 12.1145 30.3755 12.1765 30.3755 12.3286L30.3755 12.4458C30.2296 12.47 29.8284 12.5492 29.7903 12.5578C29.5608 12.61 29.2871 12.7489 29.2871 13.1138C29.2871 13.4432 29.5186 13.6733 29.85 13.6733C30.044 13.6733 30.2091 13.6101 30.36 13.4852L30.3755 13.4852L30.3976 13.6316L30.7843 13.6316L30.7844 12.3564ZM22.598 11.8355C22.598 11.6392 22.4744 11.5356 22.2406 11.5356C22.114 11.5356 21.7345 11.5356 21.7345 11.5356L21.7345 12.1423C21.7345 12.1423 22.114 12.1423 22.2406 12.1423C22.5516 12.1423 22.598 11.95 22.598 11.8355Z" fill="#008C46"/>
</svg>
