<?xml version="1.0" encoding="utf-8"?>
<!-- Generator: Adobe Illustrator 22.0.1, SVG Export Plug-In . SVG Version: 6.00 Build 0)  -->
<svg version="1.1" baseProfile="tiny" xmlns="http://www.w3.org/2000/svg" xmlns:xlink="http://www.w3.org/1999/xlink" x="0px"
	 y="0px" viewBox="0 0 24 24" xml:space="preserve">
<g id="Form">
	<path fill="#008C46" d="M16.5,3.99997v17H13v-4.98889h-3v4.98889H6.5v-17H8v5h7v-5H16.5z M9,15.99997H8v2h1V15.99997z M9,12.99997
		H8v2h1V12.99997z M9,9.99997H8v2h1V9.99997z M11,12.99997h-1v2h1V12.99997z M11,9.99997h-1v2h1V9.99997z M13,12.99997h-1v2h1
		V12.99997z M13,9.99997h-1v2h1V9.99997z M15,15.99997h-1v2h1V15.99997z M15,12.99997h-1v2h1V12.99997z M15,9.99997h-1v2h1V9.99997z
		 M13.4776,5.47601c0.0542-0.01141,0.19574-0.03851,0.19574-0.03851v0.17889c-0.02826,0.01636-0.11993,0.06531-0.20447,0.06531
		c-0.07117,0-0.1228-0.04083-0.1228-0.09717C13.34607,5.50812,13.40814,5.49072,13.4776,5.47601z M9.66302,5.30957
		c-0.0683,0-0.27325,0-0.27325,0v0.32471c0,0,0.20612,0,0.27484,0c0.14136,0,0.20441-0.04761,0.20441-0.15442
		C9.86902,5.36365,9.80347,5.30957,9.66302,5.30957z M10.42169,5.58453c0,0.05634,0.05164,0.09723,0.1228,0.09723
		c0.08453,0,0.17621-0.04895,0.20447-0.06537l0.00006-0.17883c0,0-0.1416,0.02704-0.1958,0.03851
		C10.48376,5.49072,10.42169,5.50812,10.42169,5.58453z M14.25,2.57397v5.67596L8.75,8.25V2.57397H14.25z M10.1004,5.48627
		c0-0.14557-0.09558-0.25818-0.23285-0.2793V5.19928c0.11719-0.02789,0.18164-0.10651,0.18164-0.22705
		c0-0.15558-0.10944-0.28625-0.34137-0.28625H9.16797v1.14398h0.48865C9.86322,5.82996,10.1004,5.79089,10.1004,5.48627z
		 M10.95166,5.24139c0-0.19769-0.11981-0.26941-0.35272-0.26941c-0.21246,0-0.34381,0.09845-0.34381,0.27094h0.20288
		c0-0.07745,0.03308-0.11316,0.1452-0.11316c0.10358,0,0.14581,0.02863,0.14581,0.09882v0.05408
		c-0.07239,0.01123-0.2713,0.04773-0.2901,0.05176c-0.11383,0.02405-0.24951,0.08813-0.24951,0.25653
		c0,0.15204,0.11475,0.25824,0.27905,0.25824c0.09613,0,0.17798-0.02917,0.25281-0.08673h0.00769l0.01093,0.0675h0.19171
		L10.95166,5.24139z M11.78595,5.00476h-0.20898l-0.14984,0.57446h-0.00769l-0.17377-0.57446h-0.21704l0.29626,0.84546
		c-0.0119,0.09973-0.05756,0.12-0.20612,0.08423V6.0871c0.03131,0.0105,0.09204,0.02448,0.14062,0.02448
		c0.14288,0,0.21191-0.06268,0.25629-0.20959C11.56909,5.7254,11.78595,5.00476,11.78595,5.00476z M12.91833,5.82996
		l0.23511-1.14398h-0.22357L12.7829,5.54053h-0.00769l-0.16241-0.85175h-0.22076l-0.16901,0.85175h-0.00769l-0.1532-0.85455H11.8385
		l0.23517,1.14398h0.25562l0.16284-0.77448h0.00769l0.16284,0.77448H12.91833z M13.87604,5.24139
		c0-0.19769-0.11981-0.26947-0.35272-0.26947c-0.21252,0-0.34381,0.09845-0.34381,0.271h0.20288
		c0-0.07745,0.03308-0.11316,0.1452-0.11316c0.10352,0,0.14575,0.02863,0.14575,0.09882v0.05408
		c-0.07233,0.01117-0.27124,0.04773-0.2901,0.0517c-0.11377,0.02411-0.24945,0.0882-0.24945,0.25659
		c0,0.15204,0.11475,0.25824,0.27905,0.25824c0.09613,0,0.17798-0.02917,0.25281-0.08679h0.00769l0.01093,0.06757h0.19171
		L13.87604,5.24139z M9.81781,5.00098c0-0.09058-0.06128-0.13843-0.17719-0.13843c-0.06274,0-0.25085,0-0.25085,0v0.28003
		c0,0,0.18811,0,0.25085,0C9.7948,5.14258,9.81781,5.05383,9.81781,5.00098z"/>
</g>
<g id="Ebene_1">
</g>
</svg>
