<?xml version="1.0" encoding="UTF-8"?>
<svg xmlns="http://www.w3.org/2000/svg" baseProfile="tiny" viewBox="0 0 24 24"><path fill="#008C46" d="M17.75 14.5c-1.517 0-2.75 1.233-2.75 2.75S16.233 20 17.75 20s2.75-1.233 2.75-2.75-1.233-2.75-2.75-2.75zm0 4a1.25 1.25 0 1 1-.001-2.499 1.25 1.25 0 0 1 .001 2.499zm-11-6.5a4 4 0 1 0 .001 8.001A4 4 0 0 0 6.75 12zm0 6a2 2 0 1 1 0-4 2 2 0 0 1 0 4zm13.676-3l-.45-3.58-2.971-.418V9.125h.42l.07-.5h-.74v.005h-.001a.25.25 0 0 0-.25.25V11H13.77l-.644-5H4.5v1h.463l-.213 4H4l-.7 1.39.004.004.38.33A4.472 4.472 0 0 1 6.75 11.5c2.481 0 4.5 2.019 4.5 4.5 0 .345-.047.677-.121 1h3.396a3.238 3.238 0 0 1 6.224-1h.537v-1h-.86zM7.5 11.076c-.247-.038-.493-.076-.75-.076h-1L6 7h1.5v4.076zM13.015 13h-2.29A4.988 4.988 0 0 0 8 11.178V7h4.499l.516 4.004V13zm4.386.362l-.625-1.25.448-.224.625 1.25-.448.224zm1.125 0l-.625-1.25.448-.224.625 1.25-.448.224z" style="fill: #ffffff;"/></svg>
